<?xml version="1.0" standalone="no"?>
<!DOCTYPE svg PUBLIC "-//W3C//DTD SVG 20010904//EN"
 "http://www.w3.org/TR/2001/REC-SVG-20010904/DTD/svg10.dtd">
<svg version="1.0" xmlns="http://www.w3.org/2000/svg"
 width="1024.000000pt" height="1024.000000pt" viewBox="0 0 1024.000000 1024.000000"
 preserveAspectRatio="xMidYMid meet">
<metadata>
Created by potrace 1.16, written by Peter Selinger 2001-2019
</metadata>
<g transform="translate(0.000000,1024.000000) scale(0.100000,-0.100000)"
fill="#000000" stroke="none">
<path d="M4962 9094 c-98 -26 -164 -64 -238 -138 -80 -80 -117 -144 -145 -254
-49 -191 2 -373 145 -517 106 -108 221 -155 374 -155 256 1 468 173 528 428
31 130 1 291 -75 411 -42 65 -139 155 -202 186 -106 54 -271 71 -387 39z m269
-390 c113 -34 223 -108 217 -147 -5 -31 -34 -45 -60 -27 -133 84 -179 100
-292 100 -82 0 -148 -21 -225 -70 -68 -44 -105 -50 -121 -20 -16 30 2 55 68
97 120 77 288 104 413 67z m-41 -199 c103 -36 160 -94 130 -130 -18 -22 -44
-18 -95 14 -79 50 -172 49 -256 -5 -46 -29 -65 -28 -87 4 -14 21 -12 24 21 56
69 64 199 92 287 61z m-46 -206 c33 -26 35 -70 4 -99 -28 -26 -58 -26 -92 1
-32 25 -34 64 -4 96 27 29 57 29 92 2z"/>
<path d="M5073 7770 c-278 -6 -266 1 -273 -158 l-5 -107 -32 -3 -33 -3 0 -175
0 -174 45 0 45 0 0 -447 c0 -473 -6 -567 -44 -728 -40 -166 -76 -261 -266
-705 -137 -319 -202 -533 -246 -805 -16 -100 -18 -197 -19 -1050 0 -767 3
-947 14 -978 18 -54 68 -107 120 -130 42 -18 71 -19 711 -19 467 0 680 4 709
12 27 7 59 27 86 55 78 78 75 31 75 1041 0 938 -3 1010 -46 1219 -51 244 -97
376 -285 816 -109 256 -183 461 -215 594 -15 60 -18 147 -21 598 l-4 527 40 0
41 0 0 175 0 175 -30 0 c-28 0 -30 3 -31 38 -1 101 -8 172 -19 192 -11 20 -70
53 -87 48 -4 -1 -108 -5 -230 -8z m247 -185 l0 -85 -30 0 c-27 0 -30 3 -30 29
0 37 -8 42 -53 34 -33 -5 -37 -9 -37 -34 l0 -29 -140 0 -140 0 0 85 0 85 215
0 215 0 0 -85z m70 -250 l0 -56 -290 1 -290 1 0 55 0 54 290 0 290 0 0 -55z
m-678 -2152 c10 -9 18 -28 18 -43 0 -25 -44 -157 -117 -353 -29 -78 -52 -97
-89 -72 -27 18 -31 50 -10 105 7 19 37 103 66 185 34 98 61 158 77 173 29 26
31 27 55 5z m842 -913 c0 -322 -7 -376 -60 -466 -58 -99 -168 -182 -271 -205
l-53 -12 0 -409 0 -408 133 0 c115 0 136 -3 165 -20 29 -18 62 -71 62 -100 0
-7 -141 -10 -431 -10 l-431 0 6 33 c4 17 20 46 36 62 l30 30 150 3 150 3 0
409 0 408 -37 7 c-104 19 -233 111 -290 206 -57 96 -63 140 -63 471 l0 298
453 -2 452 -3 -1 -295z m-1060 -522 c14 -19 16 -63 16 -280 0 -245 -1 -259
-20 -278 -24 -24 -38 -25 -68 -4 -22 15 -22 18 -22 281 0 234 2 269 17 285 22
25 59 23 77 -4z m0 -670 c11 -16 16 -46 16 -103 0 -88 -15 -125 -52 -125 -45
0 -58 26 -58 119 0 97 14 131 55 131 13 0 31 -10 39 -22z"/>
<path d="M4785 4043 c4 -46 16 -99 30 -129 90 -201 336 -257 498 -113 66 57
96 126 104 232 l6 87 -322 0 -323 0 7 -77z"/>
<path d="M3954 6761 c-54 -13 -117 -55 -151 -99 -68 -90 -63 117 -61 -2667 3
-2494 3 -2520 23 -2569 50 -121 166 -214 294 -236 46 -7 378 -10 1076 -8 921
3 1014 5 1060 20 117 40 200 121 241 234 l24 65 0 2527 c0 2476 -1 2528 -20
2570 -32 70 -69 110 -133 142 l-60 30 -314 0 -313 0 0 -140 0 -140 325 0 325
0 0 -2200 0 -2200 -1170 0 -1170 0 0 2200 0 2200 330 0 330 0 0 140 0 140
-302 -1 c-167 -1 -317 -4 -334 -8z m1251 -4895 c114 -53 171 -183 131 -302
-33 -100 -123 -164 -231 -164 -173 0 -294 159 -241 317 48 143 205 213 341
149z"/>
<path d="M5042 1746 c-13 -7 -32 -26 -43 -42 -49 -74 6 -174 96 -174 75 0 125
49 125 121 0 35 -6 47 -36 75 -29 28 -43 34 -77 34 -23 -1 -52 -6 -65 -14z"/>
</g>
</svg>
